<svg xmlns="http://www.w3.org/2000/svg" version="1.0" width="200.000000pt" height="200.000000pt" viewBox="0 0 200.000000 200.000000" preserveAspectRatio="xMidYMid meet">

<g transform="translate(0.000000,200.000000) scale(0.100000,-0.100000)" fill="#ffffff" stroke="none">
<path d="M600 1316 c-201 -51 -372 -95 -380 -97 -8 -3 164 -50 382 -104 l396 -99 304 73 c166 41 309 76 316 79 17 6 17 -229 0 -246 -10 -10 -10 -17 0 -33 11 -17 10 -41 -9 -143 -12 -68 -20 -130 -16 -139 9 -23 95 -24 103 -2 4 9 -4 70 -16 137 -18 101 -19 126 -9 145 10 18 10 26 1 35 -8 8 -12 54 -12 135 l0 122 43 11 c23 6 53 15 67 19 18 6 -72 31 -363 104 -213 53 -399 97 -414 96 -16 0 -192 -42 -393 -93z" fill="#ffffff"/>
<path d="M535 1082 c-3 -3 -5 -71 -5 -151 0 -169 3 -177 79 -210 108 -46 174 -55 391 -55 217 0 283 9 391 55 76 33 79 41 79 210 0 80 -2 148 -5 151 -3 3 -109 -20 -235 -52 l-230 -58 -230 58 c-126 32 -232 55 -235 52z" fill="#ffffff"/>
</g>
</svg>